# xmcd
#
# Track frame offsets:
#	150
#	19912
#	37232
#	59977
#	86512
#	105120
#	124225
#	137520
#	157162
#	178170
#
# Disc length: 2782 seconds
#
# Revision: 1
# Processed by: cddbd v1.5.1PL0 Copyright (c) Steve Scherf et al.
# Submitted via: audiograbber 1.83.01
#
DISCID=8d0adc0a
DTITLE=Various soloists  - with the women of the Motor City Mass Choir - Women O
DTITLE=f Worship
DYEAR=1998
DGENRE=Gospel music 
TTITLE0=What A Mighty God We Serve
TTITLE1=Blessing, Glory And Honor
TTITLE2=Praise Medley
TTITLE3=Father, I Stretch
TTITLE4=Praise Jehovah
TTITLE5=Taking It Back
TTITLE6=Life Can Be So Beautiful
TTITLE7=Praise The Lord
TTITLE8=We Behold You
TTITLE9=Let Us Worship Him
EXTD=
EXTT0=Vickie Winans\n
EXTT1=Regina Murf and Kim Rutherford\n
EXTT2=Joyful, joyful, we adore thee  - O come, all ye faithful  - Emmanuel  - Give
EXTT2=thanks  - I just want to praise you  - Worthy CeCe Winans\n
EXTT3=Vanessa Bell Armstrong\n
EXTT4=Beverly Crawford\n
EXTT5=Shirley Caesar\n
EXTT6=Albertina Walker\n
EXTT7=Dottie Peoples\n
EXTT8=
EXTT9=Yolanda Adams\n
PLAYORDER=
